# xmcd CD database file
#
# Track frame offsets:
#	150
#	15553
#	27693
#	47061
#	63710
#	86250
#	104280
#	118592
#	139287
#	161769
#	183540
#	202938
#	226951
#	241726
#	266998
#	285881
#	304340
#	325025
#
# Disc length: 4533 seconds
#
# Revision: 0
# Processed by: cddbd v1.5.2PL0 Copyright (c) Steve Scherf et al.
# Submitted via: CDex 1.70beta1
#
DISCID=fb11b312
DTITLE=HUMPHREY LYTTELTON - Humph And his european Friends
DYEAR=1900
DGENRE=Jazz
TTITLE0=Willie the Weeper - With Jean-François Bonnel
TTITLE1=Chicago Buzz 
TTITLE2=Straight from the Wood 
TTITLE3=Cakewalkin' Babies from Home 
TTITLE4=Blues My Naughty Sweetie Gives to Me 
TTITLE5=East Coast Trot 
TTITLE6=Blues Galore 
TTITLE7=I'm Going Away Just to Wear You off My Mind - With Bent Persson 
TTITLE8=Southern Stomps 
TTITLE9=Blue Grass Blues 
TTITLE10=Room Rent Blues 
TTITLE11=Once in a While 
TTITLE12=Mandy Make up your Mind - With Pierre Atlan 
TTITLE13=Buddy's Habit 
TTITLE14=Beale St. Mama 
TTITLE15=Hotter Than That 
TTITLE16=It Makes My Love Come Down 
TTITLE17=Blame It on the Blues 
EXTD=
EXTT0=
EXTT1=
EXTT2=
EXTT3=
EXTT4=
EXTT5=
EXTT6=
EXTT7=
EXTT8=
EXTT9=
EXTT10=
EXTT11=
EXTT12=
EXTT13=
EXTT14=
EXTT15=
EXTT16=
EXTT17=
PLAYORDER=
